<?xml version="1.0"?>
<svg width="132" height="132" xmlns="http://www.w3.org/2000/svg" xmlns:svg="http://www.w3.org/2000/svg">
 <g class="layer">
  <title>Layer 1</title>
  <path d="m11.66,0c-6.45,0 -11.66,5.22 -11.66,11.66l0,107.66c0,0.41 0.03,0.82 0.06,1.22c4.33,-1.61 8.93,-3.38 13.79,-5.32c33.81,-13.5 61.45,-24.97 61.47,-37.93c0,-0.41 -0.03,-0.83 -0.09,-1.25c-1.75,-12.79 -32.31,-16.75 -32.27,-22.62c0.01,-0.31 0.09,-0.64 0.28,-0.96c3.67,-6.43 18.22,-6.12 23.57,-6.57c5.36,-0.47 17.95,-0.37 18.55,-4.2c0.02,-0.12 0.03,-0.23 0.03,-0.35c0.01,-3.56 -8.65,-4.96 -8.65,-4.96s10.51,1.57 10.49,5.66c0,0.2 -0.03,0.41 -0.08,0.62c-1.13,4.39 -10.39,5.22 -16.51,5.52c-5.78,0.29 -14.6,0.95 -14.63,3.78c-0.01,0.16 0.03,0.34 0.08,0.51c1.38,4.13 33.69,6.13 54.35,16.85c11.9,6.17 17.81,16.53 20.53,27.23l0,-84.87c0,-6.43 -5.22,-11.66 -11.66,-11.66l-107.66,0z" fill="#840010" id="svg_2"/>
 </g>
</svg>